<?xml version="1.0" encoding="UTF-8" standalone="no"?>
<svg width="213px" height="45px" viewBox="0 0 213 45" version="1.1" xmlns="http://www.w3.org/2000/svg" xmlns:xlink="http://www.w3.org/1999/xlink">
    <!-- Generator: Sketch 42 (36781) - http://www.bohemiancoding.com/sketch -->
    <title>Page 1</title>
    <desc>Created with Sketch.</desc>
    <defs>
        <polygon id="path-1" points="17.5037 25 0.182422638 25 0.182422638 0.3852 17.5037 0.3852 17.5037 25"></polygon>
        <polygon id="path-3" points="0.983478531 0.583 10.3002 0.583 10.3002 13.6839 0.983478531 13.6839"></polygon>
        <polygon id="path-5" points="0.804934961 0.583 10.1181 0.583 10.1181 13.6839 0.804934961 13.6839 0.804934961 0.583"></polygon>
    </defs>
    <g id="Page-1" stroke="none" stroke-width="1" fill="none" fill-rule="evenodd">
        <g id="MSR-banner-on-mobile" transform="translate(-304.000000, -139.000000)">
            <g id="Page-1" transform="translate(304.000000, 138.000000)">
                <path d="M6.2222,26.832 L8.7442,26.832 C11.4872,26.832 11.8602,27.749 11.8602,28.73 C11.8602,30.259 10.7072,30.535 8.4332,30.535 L6.2222,30.535 L6.2222,26.832 Z M13.8482,35.26 C16.6032,34.391 18.2602,31.974 18.2602,28.766 C18.2602,25.39 16.6962,21.369 9.2402,21.369 L0.6702,21.369 C0.3022,21.369 0.0002,21.669 0.0002,22.032 L0.0002,44.185 C0.0002,44.554 0.3022,44.848 0.6702,44.848 L5.5522,44.848 C5.9272,44.848 6.2222,44.554 6.2222,44.185 L6.2222,35.995 L7.5552,35.995 L12.0022,44.486 C12.1152,44.71 12.3462,44.848 12.5922,44.848 L18.4392,44.848 C18.6842,44.848 18.9062,44.724 19.0252,44.51 C19.1422,44.298 19.1392,44.048 19.0102,43.84 L13.8482,35.26 Z" id="Fill-1" fill="#FEFEFE"></path>
                <path d="M41.4311,39.0059 L31.3741,39.0059 L31.3741,35.8389 L40.3071,35.8389 C40.6821,35.8389 40.9841,35.5449 40.9841,35.1729 L40.9841,30.6709 C40.9841,30.3029 40.6821,30.0019 40.3071,30.0019 L31.3741,30.0019 L31.3741,27.2099 L40.8751,27.2099 C41.2441,27.2099 41.5421,26.9079 41.5421,26.5409 L41.5421,22.0309 C41.5421,21.6689 41.2441,21.3699 40.8751,21.3699 L25.8221,21.3699 C25.4561,21.3699 25.1581,21.6689 25.1581,22.0309 L25.1581,44.1819 C25.1581,44.5539 25.4561,44.8469 25.8221,44.8469 L41.4311,44.8469 C41.8051,44.8469 42.1021,44.5539 42.1021,44.1819 L42.1021,39.6799 C42.1021,39.3079 41.8051,39.0059 41.4311,39.0059" id="Fill-3" fill="#FEFEFE"></path>
                <path d="M79.1289,21.3691 L74.1929,21.3691 C73.8909,21.3691 73.6189,21.5761 73.5429,21.8691 L70.3709,34.2851 L66.4439,21.8331 C66.3499,21.5551 66.0949,21.3691 65.8059,21.3691 L61.2699,21.3691 C60.9809,21.3691 60.7229,21.5551 60.6389,21.8261 L56.6889,33.9321 L53.6879,21.8691 C53.6179,21.5761 53.3459,21.3691 53.0399,21.3691 L47.7209,21.3691 C47.5109,21.3691 47.3109,21.4631 47.1879,21.6401 C47.0609,21.7991 47.0249,22.0201 47.0829,22.2231 L53.6499,44.3731 C53.7399,44.6591 53.9979,44.8471 54.2919,44.8471 L58.4809,44.8471 C58.7769,44.8471 59.0319,44.6611 59.1209,44.3851 L63.3949,30.9541 L67.6709,44.3851 C67.7639,44.6611 68.0169,44.8471 68.3079,44.8471 L72.6529,44.8471 C72.9549,44.8471 73.2159,44.6591 73.2999,44.3651 L79.7729,22.2231 C79.8319,22.0201 79.7939,21.7991 79.6689,21.6401 C79.5419,21.4631 79.3409,21.3691 79.1289,21.3691" id="Fill-5" fill="#FEFEFE"></path>
                <path d="M96.1387,34.6953 L92.6847,34.6953 L94.3997,30.3013 L96.1387,34.6953 Z M97.1737,21.7693 C97.0607,21.5213 96.8257,21.3683 96.5577,21.3683 L92.5247,21.3683 C92.2557,21.3683 92.0197,21.5213 91.9077,21.7693 L82.3317,43.9233 C82.2467,44.1263 82.2687,44.3653 82.3907,44.5503 C82.5147,44.7373 82.7217,44.8473 82.9487,44.8473 L88.3317,44.8473 C88.6037,44.8473 88.8517,44.6833 88.9517,44.4273 L90.6317,40.1603 L98.3327,40.1603 L100.0707,44.4323 C100.1767,44.6883 100.4167,44.8473 100.6917,44.8473 L106.1957,44.8473 C106.4177,44.8473 106.6297,44.7373 106.7487,44.5503 C106.8717,44.3653 106.8927,44.1263 106.8057,43.9183 L97.1737,21.7693 Z" id="Fill-7" fill="#FEFEFE"></path>
                <path d="M118.6553,26.832 L121.1773,26.832 C123.9153,26.832 124.2943,27.749 124.2943,28.73 C124.2943,30.259 123.1413,30.535 120.8663,30.535 L118.6553,30.535 L118.6553,26.832 Z M126.2873,35.26 C129.0303,34.391 130.6993,31.974 130.6993,28.766 C130.6993,25.39 129.1313,21.369 121.6723,21.369 L113.1113,21.369 C112.7383,21.369 112.4393,21.669 112.4393,22.032 L112.4393,44.185 C112.4393,44.554 112.7383,44.848 113.1113,44.848 L117.9893,44.848 C118.3603,44.848 118.6553,44.554 118.6553,44.185 L118.6553,35.995 L119.9953,35.995 L124.4383,44.486 C124.5493,44.71 124.7743,44.848 125.0293,44.848 L130.8743,44.848 C131.1183,44.848 131.3453,44.724 131.4573,44.51 C131.5763,44.298 131.5733,44.048 131.4493,43.84 L126.2873,35.26 Z" id="Fill-9" fill="#FEFEFE"></path>
                <path d="M152.7642,32.9219 C152.7642,37.0159 150.3872,39.0069 145.4862,39.0069 L143.6192,39.0069 L143.6192,27.2089 L145.8292,27.2089 C149.1862,27.2089 152.7642,28.7089 152.7642,32.9219 M145.3912,21.3689 L138.0722,21.3689 C137.7002,21.3689 137.4012,21.6699 137.4012,22.0299 L137.4012,44.1859 C137.4012,44.5539 137.7002,44.8479 138.0722,44.8479 L146.0502,44.8479 C152.3672,44.8479 159.1692,41.1969 159.1692,33.1719 C159.1692,25.6719 154.1442,21.3689 145.3912,21.3689" id="Fill-11" fill="#FEFEFE"></path>
                <g id="Group-15" transform="translate(164.000000, 20.417000)">
                    <mask id="mask-2" fill="white">
                        <use xlink:href="#path-1"></use>
                    </mask>
                    <g id="Clip-14"></g>
                    <path d="M10.6997,10.0332 C8.5937,9.4132 7.3087,8.9782 7.3087,7.8462 C7.3087,6.5152 9.1947,6.2262 9.9167,6.2262 C10.9457,6.2262 12.3127,6.6462 12.9307,7.4452 C13.0557,7.5952 13.2357,7.6872 13.4297,7.6952 C13.6267,7.7032 13.8187,7.6252 13.9507,7.4782 L17.2987,3.8232 C17.4147,3.6872 17.4817,3.5122 17.4737,3.3342 C17.4567,3.1522 17.3827,2.9872 17.2537,2.8702 C15.3787,1.2242 12.9487,0.3852 10.0187,0.3852 C3.7537,0.3852 0.8977,4.4622 0.8977,8.2522 C0.8977,12.9762 4.8337,14.2192 7.7037,15.1272 C9.9247,15.8292 11.2907,16.3222 11.2907,17.5122 C11.2907,18.7072 9.6257,19.1602 8.5777,19.1602 C7.1447,19.1602 5.7137,18.4572 4.8537,17.3272 C4.7367,17.1632 4.5477,17.0742 4.3507,17.0592 C4.1457,17.0582 3.9667,17.1342 3.8277,17.2752 L0.3597,21.0992 C0.1087,21.3712 0.1277,21.7882 0.3947,22.0372 C2.5177,23.9992 5.1797,25.0002 8.2977,25.0002 C13.8857,25.0002 17.5037,21.8812 17.5037,17.0412 C17.5037,12.0332 13.5737,10.8772 10.6997,10.0332" id="Fill-13" fill="#FEFEFE" mask="url(#mask-2)"></path>
                </g>
                <path d="M14.0142,1.292 L10.2172,1.292 C9.9982,1.292 9.8012,1.432 9.7252,1.646 L7.5402,7.793 L5.3702,1.646 C5.2922,1.432 5.1032,1.292 4.8872,1.292 L1.0632,1.292 C0.7682,1.292 0.5372,1.526 0.5372,1.817 L0.5372,13.29 C0.5372,13.577 0.7682,13.803 1.0632,13.803 L3.5882,13.803 C3.8662,13.803 4.1042,13.577 4.1042,13.29 L4.1042,7.632 L6.0262,13.457 C6.0932,13.665 6.2962,13.803 6.5172,13.803 L8.4472,13.803 C8.6752,13.803 8.8712,13.665 8.9402,13.462 L10.9802,7.512 L10.9802,13.29 C10.9802,13.577 11.2112,13.803 11.4972,13.803 L14.0142,13.803 C14.3132,13.803 14.5392,13.577 14.5392,13.29 L14.5392,1.817 C14.5392,1.526 14.3132,1.292 14.0142,1.292" id="Fill-16" fill="#FEFEFE"></path>
                <path d="M29.2519,1.292 L26.2499,1.292 C26.0699,1.292 25.8959,1.394 25.8079,1.542 L23.6939,5.08 L21.6939,1.558 C21.6019,1.397 21.4309,1.292 21.2419,1.292 L18.0979,1.292 C17.9109,1.292 17.7309,1.397 17.6349,1.562 C17.5539,1.728 17.5589,1.94 17.6539,2.096 L21.8939,8.549 L21.8939,13.29 C21.8939,13.577 22.1199,13.803 22.4079,13.803 L24.9329,13.803 C25.2269,13.803 25.4599,13.577 25.4599,13.29 L25.4599,8.549 L29.6799,2.096 C29.7829,1.94 29.7959,1.728 29.7049,1.562 C29.6159,1.397 29.4389,1.292 29.2519,1.292" id="Fill-18" fill="#FEFEFE"></path>
                <g id="Group-22" transform="translate(39.000000, 0.417000)">
                    <mask id="mask-4" fill="white">
                        <use xlink:href="#path-3"></use>
                    </mask>
                    <g id="Clip-21"></g>
                    <path d="M6.6592,5.5859 C5.5392,5.2579 5.0302,5.0619 5.0302,4.6189 C5.0302,4.0809 5.9032,3.9599 6.2082,3.9599 C6.6942,3.9599 7.3372,4.1549 7.6222,4.5229 C7.7182,4.6429 7.8652,4.7059 8.0092,4.7189 C8.1752,4.7269 8.3122,4.6609 8.4192,4.5489 L10.1492,2.6579 C10.2472,2.5499 10.3002,2.4139 10.2922,2.2769 C10.2802,2.1389 10.2172,2.0099 10.1132,1.9199 C9.1272,1.0499 7.7972,0.5829 6.2512,0.5829 C3.8932,0.5829 1.3572,1.9119 1.3572,4.8349 C1.3572,7.4109 3.4612,8.0689 5.0002,8.5649 C6.1812,8.9379 6.7312,9.1579 6.7312,9.6319 C6.7312,10.0989 6.0152,10.3119 5.5052,10.3119 C4.8122,10.3119 4.1312,9.9759 3.7172,9.4339 C3.6252,9.3089 3.4762,9.2289 3.3242,9.2259 C3.1532,9.2179 3.0232,9.2779 2.9172,9.3959 L1.1092,11.3759 C0.9262,11.5739 0.9462,11.9069 1.1482,12.1029 C2.2812,13.1499 3.7042,13.6839 5.3592,13.6839 C8.3612,13.6839 10.3002,11.9959 10.3002,9.3869 C10.3002,6.6679 8.1892,6.0439 6.6592,5.5859" id="Fill-20" fill="#FEFEFE" mask="url(#mask-4)"></path>
                </g>
                <path d="M61.9248,1.292 L52.8448,1.292 C52.5548,1.292 52.3228,1.526 52.3228,1.817 L52.3228,4.051 C52.3228,4.338 52.5548,4.572 52.8448,4.572 L55.6028,4.572 L55.6028,13.29 C55.6028,13.577 55.8288,13.803 56.1178,13.803 L58.6478,13.803 C58.9368,13.803 59.1648,13.577 59.1648,13.29 L59.1648,4.572 L61.9248,4.572 C62.2108,4.572 62.4468,4.338 62.4468,4.051 L62.4468,1.817 C62.4468,1.526 62.2108,1.292 61.9248,1.292" id="Fill-23" fill="#FEFEFE"></path>
                <path d="M70.5996,8.2217 L68.7506,8.2217 L69.6666,5.8757 L70.5996,8.2217 Z M71.2976,1.6077 C71.2086,1.4147 71.0226,1.2927 70.8146,1.2927 L68.7176,1.2927 C68.5166,1.2927 68.3256,1.4147 68.2396,1.6077 L63.2866,13.0807 C63.2236,13.2417 63.2396,13.4247 63.3296,13.5777 C63.4256,13.7257 63.5896,13.8017 63.7586,13.8017 L66.5506,13.8017 C66.7616,13.8017 66.9536,13.6797 67.0306,13.4867 L67.8606,11.3747 L71.6116,11.3747 L72.4746,13.4867 C72.5556,13.6797 72.7436,13.8017 72.9526,13.8017 L75.8046,13.8017 C75.9856,13.8017 76.1476,13.7257 76.2386,13.5777 C76.3326,13.4247 76.3516,13.2367 76.2866,13.0807 L71.2976,1.6077 Z" id="Fill-25" fill="#FEFEFE"></path>
                <path d="M83.2339,4.4746 L84.3669,4.4746 C85.8139,4.4746 85.8139,4.9696 85.8139,5.2826 C85.8139,5.8716 85.4529,6.0476 84.2069,6.0476 L83.2339,6.0476 L83.2339,4.4746 Z M87.2779,8.7576 C88.6529,8.2346 89.4749,6.9636 89.4749,5.3016 C89.4749,2.7136 87.7569,1.2926 84.6349,1.2926 L80.1899,1.2926 C79.8989,1.2926 79.6729,1.5266 79.6729,1.8166 L79.6729,13.2906 C79.6729,13.5786 79.8989,13.8006 80.1899,13.8006 L82.7199,13.8006 C83.0099,13.8006 83.2339,13.5786 83.2339,13.2906 L83.2339,9.2206 L83.6489,9.2206 L85.9059,13.5336 C85.9949,13.6996 86.1699,13.8006 86.3599,13.8006 L89.3909,13.8006 C89.5859,13.8006 89.7579,13.7046 89.8429,13.5426 C89.9389,13.3816 89.9389,13.1816 89.8379,13.0226 L87.2779,8.7576 Z" id="Fill-27" fill="#FEFEFE"></path>
                <path d="M96.979,9.0625 L98.373,9.0625 C99.382,9.0625 99.894,9.3125 99.894,9.8035 C99.894,10.5515 99.078,10.6265 98.723,10.6265 L96.979,10.6265 L96.979,9.0625 Z M98.286,5.8845 L96.979,5.8845 L96.979,4.4745 L98.171,4.4745 C98.953,4.4745 99.355,4.7005 99.355,5.1505 C99.355,5.7815 98.687,5.8845 98.286,5.8845 L98.286,5.8845 Z M101.74,7.1635 C102.497,6.5855 102.923,5.7335 102.923,4.7325 C102.923,2.4505 101.337,1.2925 98.201,1.2925 L93.927,1.2925 C93.637,1.2925 93.41,1.5265 93.41,1.8185 L93.41,13.2905 C93.41,13.5795 93.637,13.8025 93.927,13.8025 L98.632,13.8025 C100.964,13.8025 103.455,12.8325 103.455,10.0955 C103.455,8.7915 102.805,7.7235 101.74,7.1635 L101.74,7.1635 Z" id="Fill-29" fill="#FEFEFE"></path>
                <path d="M117.3345,1.292 L114.8165,1.292 C114.5225,1.292 114.2965,1.526 114.2965,1.817 L114.2965,8.765 C114.2965,9.912 113.5445,10.728 112.5085,10.728 C111.4715,10.728 110.7115,9.912 110.7115,8.765 L110.7115,1.817 C110.7115,1.526 110.4805,1.292 110.1945,1.292 L107.6635,1.292 C107.3745,1.292 107.1405,1.526 107.1405,1.817 L107.1405,8.866 C107.1405,12.046 109.2475,14.101 112.5085,14.101 C115.7575,14.101 117.8625,12.046 117.8625,8.866 L117.8625,1.817 C117.8625,1.526 117.6275,1.292 117.3345,1.292" id="Fill-31" fill="#FEFEFE"></path>
                <path d="M130.8452,9.5996 C130.7242,9.5106 130.5792,9.4776 130.4472,9.4986 C130.3012,9.5246 130.1712,9.6036 130.0922,9.7256 C129.6622,10.3736 128.9892,10.7296 128.1602,10.7296 C126.6102,10.7296 125.4352,9.3606 125.4352,7.5446 C125.4352,5.7116 126.6182,4.3766 128.2412,4.3766 C128.9962,4.3766 129.5942,4.6296 130.0152,5.1236 C130.2002,5.3456 130.5212,5.3766 130.7432,5.1976 L132.6862,3.6036 C132.9062,3.4236 132.9442,3.1016 132.7702,2.8816 C131.8402,1.7066 130.2452,1.0016 128.4792,1.0016 C124.5322,1.0016 121.7712,3.6926 121.7712,7.5446 C121.7712,11.4126 124.5322,14.1016 128.4792,14.1016 C130.3782,14.1016 132.0812,13.2746 133.0562,11.8806 C133.2172,11.6606 133.1682,11.3426 132.9442,11.1676 L130.8452,9.5996 Z" id="Fill-33" fill="#FEFEFE"></path>
                <path d="M143.2378,7.1572 L148.0118,2.1722 C148.1568,2.0222 148.1898,1.8022 148.1158,1.6092 C148.0338,1.4262 147.8398,1.2932 147.6338,1.2932 L144.3298,1.2932 C144.1828,1.2932 144.0478,1.3532 143.9538,1.4572 L140.3958,5.2572 L140.3958,1.8172 C140.3958,1.5272 140.1608,1.2932 139.8708,1.2932 L137.3428,1.2932 C137.0598,1.2932 136.8298,1.5272 136.8298,1.8172 L136.8298,13.2902 C136.8298,13.5782 137.0598,13.8022 137.3428,13.8022 L139.8708,13.8022 C140.1608,13.8022 140.3958,13.5782 140.3958,13.2902 L140.3958,9.2542 L144.1458,13.6252 C144.2428,13.7432 144.3858,13.8022 144.5368,13.8022 L148.0718,13.8022 C148.2728,13.8022 148.4648,13.6802 148.5518,13.5002 C148.6288,13.3122 148.5918,13.0872 148.4648,12.9412 L143.2378,7.1572 Z" id="Fill-35" fill="#FEFEFE"></path>
                <g id="Group-39" transform="translate(150.000000, 0.417000)">
                    <mask id="mask-6" fill="white">
                        <use xlink:href="#path-5"></use>
                    </mask>
                    <g id="Clip-38"></g>
                    <path d="M6.4741,5.5859 C5.3661,5.2579 4.8431,5.0619 4.8431,4.6189 C4.8431,4.0809 5.7161,3.9599 6.0271,3.9599 C6.5081,3.9599 7.1611,4.1549 7.4521,4.5229 C7.5411,4.6429 7.6851,4.7059 7.8381,4.7189 C7.9831,4.7269 8.1351,4.6609 8.2371,4.5489 L9.9731,2.6579 C10.0621,2.5499 10.1101,2.4139 10.1091,2.2769 C10.1001,2.1389 10.0321,2.0099 9.9311,1.9199 C8.9601,1.0499 7.6081,0.5829 6.0771,0.5829 C3.7131,0.5829 1.1741,1.9119 1.1741,4.8349 C1.1741,7.4109 3.2751,8.0689 4.8241,8.5649 C6.0021,8.9379 6.5631,9.1579 6.5631,9.6319 C6.5631,10.0989 5.8351,10.3119 5.3231,10.3119 C4.6271,10.3119 3.9491,9.9759 3.5381,9.4339 C3.4411,9.3089 3.3041,9.2289 3.1501,9.2259 C2.9931,9.2179 2.8431,9.2779 2.7411,9.3959 L0.9421,11.3759 C0.7471,11.5739 0.7641,11.9069 0.9671,12.1029 C2.1131,13.1499 3.5221,13.6839 5.1851,13.6839 C8.1771,13.6839 10.1181,11.9959 10.1181,9.3869 C10.1181,6.6679 8.0131,6.0439 6.4741,5.5859" id="Fill-37" fill="#FEFEFE" mask="url(#mask-6)"></path>
                </g>
                <polygon id="Fill-40" fill="#FEFEFE" points="205.8535 44.292 205.3365 44.292 205.3365 41.068 204.1505 41.068 204.1505 40.618 207.0395 40.618 207.0395 41.068 205.8535 41.068"></polygon>
                <polygon id="Fill-42" fill="#FEFEFE" points="209.4448 43.4375 209.4548 43.4375 210.5468 40.6195 211.3528 40.6195 211.3528 44.2925 210.8338 44.2925 210.8338 41.2215 210.8228 41.2215 209.5978 44.2925 209.2678 44.2925 208.0438 41.2215 208.0338 41.2215 208.0338 44.2925 207.5308 44.2925 207.5308 40.6195 208.3388 40.6195"></polygon>
                <path d="M197.3003,31.5898 C197.2193,31.5898 197.1723,31.6338 197.1443,31.7088 C196.8473,32.4178 196.5883,33.0978 196.3433,33.7538 C196.0173,34.6128 195.7083,35.4188 195.3503,36.2478 C194.5913,36.2658 193.8523,36.2638 193.1443,36.2558 C192.2693,36.2478 191.3723,36.2428 190.4233,36.2708 C190.3463,36.2738 190.2783,36.3298 190.2503,36.4038 C190.2183,36.4818 190.2473,36.5628 190.3063,36.6128 C191.0093,37.2378 191.7973,37.8338 192.5643,38.4118 C193.0893,38.8158 193.6373,39.2328 194.1553,39.6508 L192.8553,44.2028 C192.8303,44.2808 192.8583,44.3598 192.9203,44.4098 C192.9553,44.4318 192.9973,44.4498 193.0333,44.4518 C193.0673,44.4518 193.0973,44.4418 193.1333,44.4238 C193.9033,44.0178 194.5313,43.6038 195.1283,43.2028 C195.8303,42.7418 196.4683,42.3008 197.3003,41.9038 C198.1333,42.3008 198.7693,42.7368 199.4743,43.1978 C200.0713,43.5988 200.6973,44.0118 201.4683,44.4188 C201.5053,44.4348 201.5313,44.4478 201.5683,44.4458 C201.6053,44.4448 201.6463,44.4268 201.6833,44.4038 C201.7433,44.3538 201.7733,44.2758 201.7473,44.1978 L200.4463,39.6458 C200.9633,39.2268 201.5113,38.8108 202.0353,38.4078 C202.8053,37.8298 203.5913,37.2328 204.2953,36.6068 C204.3573,36.5578 204.3853,36.4768 204.3493,36.3988 C204.3263,36.3228 204.2563,36.2688 204.1763,36.2638 C203.2303,36.2378 202.3323,36.2428 201.4573,36.2508 C200.7503,36.2598 200.0103,36.2608 199.2523,36.2428 C198.8923,35.4118 198.5833,34.6068 198.2563,33.7498 C198.0143,33.0938 197.7553,32.4118 197.4603,31.7028 C197.4303,31.6278 197.3833,31.5898 197.3003,31.5898" id="Fill-44" fill="#FEFEFE"></path>
                <path d="M204.6099,12.6377 C204.5129,12.6357 204.4599,12.6877 204.4259,12.7757 C204.0839,13.5987 203.7799,14.3907 203.4979,15.1547 C203.1179,16.1517 202.7569,17.0877 202.3409,18.0547 C201.4599,18.0737 200.5969,18.0727 199.7749,18.0627 C198.7579,18.0537 197.7159,18.0467 196.6129,18.0777 C196.5229,18.0827 196.4439,18.1477 196.4129,18.2337 C196.3739,18.3247 196.4049,18.4187 196.4789,18.4767 C197.2959,19.2027 198.2079,19.8987 199.1019,20.5707 C199.7129,21.0387 200.3489,21.5227 200.9499,22.0077 L199.4409,27.3027 C199.4109,27.3927 199.4439,27.4857 199.5129,27.5447 C199.5569,27.5717 199.6049,27.5897 199.6489,27.5927 C199.6879,27.5927 199.7209,27.5787 199.7639,27.5617 C200.6579,27.0877 201.3899,26.6057 202.0839,26.1397 C202.9019,25.6037 203.6429,25.0917 204.6099,24.6297 C205.5769,25.0917 206.3179,25.5977 207.1369,26.1337 C207.8309,26.6007 208.5589,27.0817 209.4549,27.5537 C209.4999,27.5727 209.5309,27.5867 209.5699,27.5847 C209.6149,27.5837 209.6639,27.5647 209.7049,27.5367 C209.7749,27.4787 209.8069,27.3867 209.7789,27.2957 L208.2679,22.0037 C208.8699,21.5177 209.5059,21.0327 210.1169,20.5647 C211.0099,19.8927 211.9239,19.1977 212.7409,18.4707 C212.8139,18.4127 212.8449,18.3197 212.8059,18.2267 C212.7759,18.1407 212.6949,18.0767 212.6059,18.0727 C211.5049,18.0407 210.4589,18.0467 209.4429,18.0567 C208.6219,18.0657 207.7599,18.0677 206.8779,18.0487 C206.4619,17.0807 206.1019,16.1457 205.7209,15.1487 C205.4389,14.3847 205.1369,13.5937 204.7929,12.7707 C204.7579,12.6807 204.7059,12.6357 204.6099,12.6377" id="Fill-46" fill="#FEFEFE"></path>
            </g>
        </g>
    </g>
</svg>