<?xml version="1.0" encoding="UTF-8"?>
<svg width="271px" height="133px" viewBox="0 0 271 133" version="1.1" xmlns="http://www.w3.org/2000/svg" xmlns:xlink="http://www.w3.org/1999/xlink">
    <!-- Generator: Sketch 47.1 (45422) - http://www.bohemiancoding.com/sketch -->
    <title>udp-starbucks-cn</title>
    <desc>Created with Sketch.</desc>
    <defs>
        <rect id="path-1" x="0" y="0" width="172" height="56" rx="28"></rect>
        <filter x="-11.6%" y="-21.4%" width="123.3%" height="171.4%" filterUnits="objectBoundingBox" id="filter-2">
            <feOffset dx="0" dy="8" in="SourceAlpha" result="shadowOffsetOuter1"></feOffset>
            <feGaussianBlur stdDeviation="4" in="shadowOffsetOuter1" result="shadowBlurOuter1"></feGaussianBlur>
            <feColorMatrix values="0 0 0 0 0   0 0 0 0 0   0 0 0 0 0  0 0 0 0.14 0" type="matrix" in="shadowBlurOuter1" result="shadowMatrixOuter1"></feColorMatrix>
            <feOffset dx="0" dy="0" in="SourceAlpha" result="shadowOffsetOuter2"></feOffset>
            <feGaussianBlur stdDeviation="2" in="shadowOffsetOuter2" result="shadowBlurOuter2"></feGaussianBlur>
            <feColorMatrix values="0 0 0 0 0   0 0 0 0 0   0 0 0 0 0  0 0 0 0.24 0" type="matrix" in="shadowBlurOuter2" result="shadowMatrixOuter2"></feColorMatrix>
            <feMerge>
                <feMergeNode in="shadowMatrixOuter1"></feMergeNode>
                <feMergeNode in="shadowMatrixOuter2"></feMergeNode>
            </feMerge>
        </filter>
    </defs>
    <g id="Page-1" stroke="none" stroke-width="1" fill="none" fill-rule="evenodd">
        <g id="udp-starbucks-cn">
            <g transform="translate(51.000000, 37.000000)">
                <g id="BG-Copy-2">
                    <g id="path-1-link">
                        <g id="path-1">
                            <use fill="black" fill-opacity="1" filter="url(#filter-2)" xlink:href="#path-1"></use>
                            <use fill="#00AF66" fill-rule="evenodd" xlink:href="#path-1"></use>
                        </g>
                    </g>
                </g>
                <g id="Group-9" transform="translate(63.000000, 11.000000)" fill-rule="nonzero" fill="#FFFFFF">
                    <g id="Group-9-Copy">
                        <path d="M3.712,10.08 L7.856,10.08 L7.856,11.36 L3.552,11.36 L3.552,12.64 L7.856,12.64 L7.856,13.92 L1.648,13.92 L1.648,15.296 L15.264,15.296 L15.264,13.92 L9.392,13.92 L9.392,12.64 L13.952,12.64 L13.952,11.36 L9.392,11.36 L9.392,10.08 L14.544,10.08 L14.544,8.736 L9.392,8.736 L9.392,7.648 L7.856,7.648 L7.856,8.736 L4.304,8.736 L4.656,7.76 L3.28,7.456 C2.672,9.2 1.936,10.56 1.072,11.552 L2.064,12.736 C2.672,12 3.216,11.104 3.712,10.08 Z M3.024,1.328 L3.024,7.216 L13.6,7.216 L13.6,1.328 L3.024,1.328 Z M12.096,5.936 L4.528,5.936 L4.528,4.88 L12.096,4.88 L12.096,5.936 Z M4.528,3.664 L4.528,2.624 L12.096,2.624 L12.096,3.664 L4.528,3.664 Z M23.152,3.088 L23.152,7.232 L19.344,7.232 L19.344,3.088 L23.152,3.088 Z M24.688,7.232 L24.688,3.088 L28.48,3.088 L28.48,7.232 L24.688,7.232 Z M29.984,1.632 L17.808,1.632 L17.808,13.456 C17.808,14.576 18.416,15.136 19.648,15.136 L29.136,15.136 C30.032,15.088 30.608,14.624 30.864,13.728 C31.024,13.184 31.152,12.288 31.28,11.008 L29.808,10.544 C29.712,11.952 29.6,12.784 29.472,13.072 C29.328,13.44 29.056,13.632 28.64,13.664 L20.256,13.664 C19.648,13.664 19.344,13.392 19.344,12.864 L19.344,8.672 L29.984,8.672 L29.984,1.632 Z M39.232,0.848 L39.232,2.432 L33.104,2.432 L33.104,3.904 L39.232,3.904 L39.232,5.296 L34.864,5.296 L34.864,10.208 L37.104,10.208 C36.944,11.328 36.608,12.144 36.08,12.688 C35.408,13.376 34.288,13.968 32.72,14.448 L33.696,15.696 C35.456,15.04 36.736,14.272 37.504,13.408 C38.096,12.704 38.48,11.648 38.672,10.208 L40.96,10.208 L40.96,13.552 C40.96,14.752 41.52,15.36 42.656,15.36 L45.28,15.36 C45.856,15.344 46.304,15.216 46.64,14.976 C46.928,14.736 47.152,13.936 47.328,12.576 L45.888,12.096 C45.824,13.024 45.68,13.568 45.488,13.696 C45.296,13.824 45.104,13.888 44.896,13.888 L43.088,13.888 C42.656,13.888 42.448,13.68 42.448,13.296 L42.448,10.208 L45.12,10.208 L45.12,5.296 L40.768,5.296 L40.768,3.904 L46.896,3.904 L46.896,2.432 L40.768,2.432 L40.768,0.848 L39.232,0.848 Z M43.616,8.784 L36.368,8.784 L36.368,6.736 L43.616,6.736 L43.616,8.784 Z" id="星巴克"></path>
                        <path d="M5.22,23.576 L5.22,31.34 C5.22,32.012 5.196,32.408 5.136,32.816 L6.276,32.816 C6.216,32.42 6.192,32.012 6.192,31.34 L6.192,25.976 C7.98,26.864 8.76,27.32 9.936,28.232 L10.488,27.32 C8.976,26.312 8.508,26.06 6.192,24.956 L6.192,23.576 L9.852,23.576 C10.44,23.576 10.872,23.6 11.316,23.648 L11.316,22.616 C10.884,22.664 10.452,22.688 9.852,22.688 L2.148,22.688 C1.536,22.688 1.104,22.664 0.684,22.616 L0.684,23.648 C1.116,23.6 1.572,23.576 2.148,23.576 L5.22,23.576 Z M13.308,23.036 L13.308,24.068 L15.552,24.068 L15.552,24.932 L12.684,24.932 L12.684,25.976 L19.344,25.976 C19.416,27.008 19.548,27.908 19.716,28.652 C19.836,29.252 19.992,29.804 20.16,30.308 C19.572,31.196 18.864,31.868 18.024,32.324 L18.636,33.236 C19.38,32.828 20.052,32.264 20.652,31.52 C20.736,31.688 20.832,31.856 20.94,32.012 C21.444,32.732 21.9,33.092 22.332,33.092 C22.872,33.092 23.28,32.288 23.556,30.692 L22.584,30.176 C22.452,31.34 22.32,31.928 22.2,31.928 C22.044,31.928 21.828,31.64 21.54,31.088 C21.456,30.932 21.372,30.752 21.3,30.56 C21.888,29.552 22.368,28.316 22.74,26.852 L21.72,26.396 C21.492,27.368 21.204,28.244 20.856,29.036 C20.808,28.832 20.772,28.616 20.724,28.4 C20.604,27.776 20.508,26.972 20.436,25.976 L23.304,25.976 L23.304,24.932 L20.376,24.932 C20.328,24.092 20.304,23.156 20.304,22.112 L19.2,22.112 C19.2,23.12 19.224,24.068 19.272,24.932 L16.656,24.932 L16.656,24.068 L18.732,24.068 L18.732,23.036 L16.656,23.036 L16.656,22.124 L15.552,22.124 L15.552,23.036 L13.308,23.036 Z M21.528,22.232 L20.664,22.784 C21.264,23.456 21.732,24.056 22.068,24.596 L22.92,23.996 C22.596,23.492 22.128,22.904 21.528,22.232 Z M18.732,30.644 C18.168,30.716 17.58,30.776 16.956,30.836 L16.956,30.068 L18.672,30.068 L18.672,29.12 L16.956,29.12 L16.956,28.328 L15.84,28.328 L15.84,29.12 L14.676,29.12 C14.916,28.748 15.156,28.34 15.372,27.884 L18.792,27.884 L18.792,26.876 L15.792,26.876 C15.864,26.684 15.936,26.492 16.008,26.276 L14.928,26.072 C14.832,26.348 14.748,26.612 14.652,26.876 L13.044,26.876 L13.044,27.884 L14.208,27.884 C13.956,28.388 13.692,28.808 13.404,29.156 L13.62,30.068 L15.84,30.068 L15.84,30.944 C14.976,31.016 14.076,31.076 13.116,31.124 L13.248,32.18 C14.148,32.108 15.012,32.036 15.84,31.964 L15.84,33.2 L16.956,33.2 L16.956,31.844 C17.568,31.772 18.156,31.7 18.732,31.628 L18.732,30.644 Z" id="下载-copy-9"></path>
                    </g>
                    <path d="M56.232,2.72 L54.408,2.72 L49.48,14 L51.496,14 L52.648,11.296 L57.944,11.296 L59.08,14 L61.16,14 L56.232,2.72 Z M57.224,9.552 L53.368,9.552 L55.288,5.072 L57.224,9.552 Z M71.752,6.56 C71.752,4.272 70.104,2.8 67.496,2.8 L63.08,2.8 L63.08,14 L65.048,14 L65.048,10.4 L67.272,10.4 C69.736,10.4 71.752,9.088 71.752,6.56 Z M69.752,6.608 C69.752,7.808 68.824,8.624 67.336,8.624 L65.048,8.624 L65.048,4.592 L67.336,4.592 C68.808,4.592 69.752,5.28 69.752,6.608 Z M82.44,6.56 C82.44,4.272 80.792,2.8 78.184,2.8 L73.768,2.8 L73.768,14 L75.736,14 L75.736,10.4 L77.96,10.4 C80.424,10.4 82.44,9.088 82.44,6.56 Z M80.44,6.608 C80.44,7.808 79.512,8.624 78.024,8.624 L75.736,8.624 L75.736,4.592 L78.024,4.592 C79.496,4.592 80.44,5.28 80.44,6.608 Z" id="APP"></path>
                </g>
                <g id="logo-copy-3" transform="translate(25.000000, 14.000000)" fill-rule="nonzero">
                    <g id="Layer_1">
                        <g id="Group">
                            <path d="M14,27.6514523 C6.28235294,27.6514523 0.0352941176,21.4705394 0.0352941176,13.8605809 C0.0352941176,12.0779144 0.719487289,10.6310993 1.37461725,9.16737336 C2.57396702,6.48772281 4.42164567,4.18045046 7.06727623,2.68509079 C9.15503811,1.50504889 11.396139,0.379164749 14,0.379164749 C15.5923036,0.379164749 17.2108455,0.942802296 18.5883774,1.46986538 C21.7104706,2.66442224 24.1040004,4.47884157 25.7714103,7.37268125 C26.9286709,9.38114143 27.9647059,11.3832654 27.9647059,13.8605809 C27.9647059,21.4821577 21.7058824,27.6514523 14,27.6514523 Z" id="Shape" fill="#FFFFFF"></path>
                            <path d="M15.4,6.02987552 C15.2823529,6.006639 14.6941176,5.91369295 14,5.91369295 C13.3058824,5.91369295 12.7176471,6.006639 12.6,6.02987552 C12.5294118,6.04149378 12.5058824,5.97178423 12.5529412,5.93692946 C12.6,5.90207469 14,4.84481328 14,4.84481328 C14,4.84481328 15.4,5.90207469 15.4470588,5.93692946 C15.4941176,5.97178423 15.4705882,6.04149378 15.4,6.02987552 M12.9764706,12.8614108 C12.9764706,12.8614108 12.9058824,12.8846473 12.8823529,12.9543568 C13.1764706,13.1751037 13.3764706,13.6863071 13.9882353,13.6863071 C14.6,13.6863071 14.8,13.1751037 15.0941176,12.9543568 C15.0705882,12.8846473 15,12.8614108 15,12.8614108 C15,12.8614108 14.6117647,12.9543568 13.9882353,12.9543568 C13.3647059,12.9543568 12.9764706,12.8614108 12.9764706,12.8614108 M13.9882353,12.013278 C13.8235294,12.013278 13.7764706,11.9551867 13.6705882,11.9551867 C13.5647059,11.9551867 13.3411765,12.0481328 13.2941176,12.1178423 C13.2941176,12.1526971 13.3176471,12.1875519 13.3411765,12.2224066 C13.5882353,12.2572614 13.7058824,12.3966805 13.9882353,12.3966805 C14.2705882,12.3966805 14.3882353,12.2572614 14.6352941,12.2224066 C14.6705882,12.1875519 14.6823529,12.1526971 14.6823529,12.1178423 C14.6352941,12.0365145 14.4235294,11.9551867 14.3058824,11.9551867 C14.2,11.9435685 14.1647059,12.013278 13.9882353,12.013278 M27.9411765,14.6157676 C27.9176471,14.9410788 27.8941176,15.2780083 27.8588235,15.5917012 C26.2823529,15.8473029 25.7176471,14.4647303 24.0941176,14.5228216 C24.1882353,14.859751 24.2705882,15.2082988 24.3294118,15.5568465 C25.6705882,15.5568465 26.2,16.7883817 27.6941176,16.6024896 C27.6117647,16.9742739 27.5176471,17.3460581 27.4117647,17.7178423 C26.2352941,17.8340249 25.8235294,16.6838174 24.4588235,16.7070539 C24.4705882,16.9045643 24.4705882,17.0904564 24.4705882,17.2879668 C24.4705882,17.3925311 24.4705882,17.5087137 24.4588235,17.613278 C25.6235294,17.6016598 26,18.6589212 27.1058824,18.6124481 C26.9647059,18.9842324 26.8117647,19.3443983 26.6470588,19.7045643 C25.8470588,19.6580913 25.5764706,18.6589212 24.3764706,18.740249 C24.3411765,18.9958506 24.2941176,19.2514523 24.2352941,19.5070539 C25.2823529,19.4373444 25.5058824,20.3900415 26.2588235,20.459751 C26.0705882,20.8082988 25.8588235,21.1452282 25.6470588,21.4705394 C25.2,21.2381743 24.8117647,20.5294606 23.9764706,20.4829876 C24.0588235,20.2157676 24.1411765,19.9485477 24.2,19.6813278 C23.4470588,19.6813278 22.6,19.3908714 21.8823529,18.7518672 C22.1176471,17.4390041 20.0588235,16.1145228 20.0588235,15.1502075 C20.0588235,14.1161826 20.5882353,13.5352697 20.5882353,12.1294606 C20.5882353,11.0838174 20.0705882,9.95684647 19.3058824,9.19004149 C19.1529412,9.03900415 19,8.92282158 18.8235294,8.806639 C19.5294118,9.6780083 20.0823529,10.7004149 20.0823529,11.8970954 C20.0823529,13.2215768 19.4588235,13.9186722 19.4588235,15.1385892 C19.4588235,16.3585062 21.2705882,17.4157676 21.2705882,18.6705394 C21.2705882,19.1701245 21.1058824,19.646473 20.5882353,20.5991701 C21.4,21.4008299 22.4588235,21.8307054 23.1411765,21.8307054 C23.3647059,21.8307054 23.4823529,21.7609959 23.5647059,21.5983402 C23.6352941,21.4473029 23.6941176,21.2962656 23.7529412,21.1452282 C24.4823529,21.1684647 24.8235294,21.8307054 25.2235294,22.0979253 C25,22.3883817 24.7647059,22.6788382 24.5176471,22.9576763 C24.2470588,22.6556017 23.8823529,22.1560166 23.3411765,22.0165975 C23.2470588,22.2024896 23.1411765,22.3767635 23.0352941,22.5626556 C23.4941176,22.6904564 23.8117647,23.1435685 24.0588235,23.4456432 C23.8,23.7128631 23.5176471,23.9684647 23.2352941,24.2240664 C23.0588235,23.9568465 22.7764706,23.6082988 22.4705882,23.4107884 L22.1176471,23.8639004 C22.3882353,24.0381743 22.6117647,24.3634855 22.7647059,24.6190871 C22.4352941,24.8863071 22.0941176,25.1302905 21.7411765,25.3626556 C21.5647059,23.9568465 19.6352941,23.0041494 20.1529412,21.3775934 C19.9764706,21.6680498 19.7764706,22.0282158 19.7764706,22.4580913 C19.7764706,23.6315353 21.0470588,24.5726141 21.1411765,25.7344398 C20.8823529,25.8854772 20.6117647,26.0365145 20.3294118,26.1759336 C20.2823529,24.8863071 18.9411765,23.4804979 18.9411765,22.4348548 C18.9411765,21.2614108 20.5058824,20.0763485 20.5058824,18.6821577 C20.5058824,17.2879668 18.7058824,16.3236515 18.7058824,15.1037344 C18.7058824,13.8838174 19.4705882,13.186722 19.4705882,11.6182573 C19.4705882,10.4680498 18.9176471,9.31784232 18.0705882,8.57427386 C17.9176471,8.44647303 17.7764706,8.34190871 17.5882353,8.24896266 C18.3882353,9.20165975 18.8588235,10.0614108 18.8588235,11.3742739 C18.8588235,12.8497925 17.9764706,13.6630705 17.9764706,15.1037344 C17.9764706,16.5443983 19.7411765,17.3460581 19.7411765,18.6821577 C19.7411765,20.0182573 18.0941176,21.1568465 18.0941176,22.5394191 C18.0941176,23.7941909 19.5411765,25.0489627 19.5647059,26.5360996 C19.2470588,26.6755187 18.9294118,26.8033195 18.6,26.9078838 C18.7882353,25.4091286 17.1529412,23.8522822 17.1529412,22.6207469 C17.1529412,21.2846473 18.8588235,20.1228216 18.8588235,18.6821577 C18.8588235,17.2414938 17.1294118,16.5676349 17.1294118,15.0804979 C17.1294118,13.593361 18.2,12.7684647 18.2,11.1302905 C18.2,9.85228216 17.5647059,8.70207469 16.6235294,7.993361 C16.6,7.98174274 16.5882353,7.95850622 16.5647059,7.94688797 C16.4823529,7.87717842 16.4,7.95850622 16.4705882,8.03983402 C17.1294118,8.85311203 17.4823529,9.6780083 17.4823529,10.8979253 C17.4823529,12.3966805 16.2588235,13.6165975 16.2588235,15.0688797 C16.2588235,16.7883817 17.9058824,17.2763485 17.9058824,18.6821577 C17.9058824,20.0879668 16.1411765,21.2149378 16.1411765,22.7136929 C16.1411765,24.0962656 17.8117647,25.6414938 17.5176471,27.233195 C17.1882353,27.3145228 16.8470588,27.3958506 16.5058824,27.4539419 C16.8235294,25.4672199 15.1882353,24.026556 15.1882353,22.7253112 C15.1882353,21.3195021 17.0117647,20.053112 17.0117647,18.6821577 C17.0117647,17.3809129 15.7058824,16.9626556 15.5294118,15.626556 C15.5058824,15.4406639 15.3529412,15.3128631 15.1529412,15.3477178 C14.8823529,15.3941909 14.5411765,15.5684647 14.0117647,15.5684647 C13.4705882,15.5684647 13.1411765,15.3941909 12.8705882,15.3477178 C12.6705882,15.3128631 12.5176471,15.4522822 12.4941176,15.626556 C12.3176471,16.9626556 11.0117647,17.3809129 11.0117647,18.6821577 C11.0117647,20.0647303 12.8352941,21.3195021 12.8352941,22.7253112 C12.8352941,24.026556 11.2,25.4556017 11.5176471,27.4539419 C11.1764706,27.3958506 10.8352941,27.3145228 10.5058824,27.233195 C10.2235294,25.6298755 11.8823529,24.0962656 11.8823529,22.7136929 C11.8823529,21.2149378 10.1176471,20.0879668 10.1176471,18.6821577 C10.1176471,17.2763485 11.7647059,16.7883817 11.7647059,15.0688797 C11.7647059,13.6165975 10.5411765,12.3966805 10.5411765,10.8979253 C10.5411765,9.6780083 10.8941176,8.85311203 11.5529412,8.03983402 C11.6117647,7.95850622 11.5411765,7.88879668 11.4588235,7.94688797 C11.4352941,7.95850622 11.4235294,7.98174274 11.4,7.993361 C10.4705882,8.70207469 9.82352941,9.85228216 9.82352941,11.1302905 C9.82352941,12.7684647 10.8941176,13.593361 10.8941176,15.0804979 C10.8941176,16.5676349 9.16470588,17.2414938 9.16470588,18.6821577 C9.16470588,20.1228216 10.8705882,21.2846473 10.8705882,22.6207469 C10.8705882,23.8522822 9.23529412,25.3975104 9.42352941,26.9078838 C9.09411765,26.7917012 8.77647059,26.6755187 8.45882353,26.5360996 C8.48235294,25.0489627 9.92941176,23.7941909 9.92941176,22.5394191 C9.92941176,21.1568465 8.28235294,20.0298755 8.28235294,18.6821577 C8.28235294,17.3344398 10.0470588,16.5443983 10.0470588,15.1037344 C10.0470588,13.6630705 9.16470588,12.8497925 9.16470588,11.3742739 C9.16470588,10.0614108 9.63529412,9.20165975 10.4352941,8.24896266 C10.2588235,8.34190871 10.1058824,8.44647303 9.95294118,8.57427386 C9.10588235,9.31784232 8.55294118,10.479668 8.55294118,11.6182573 C8.55294118,13.186722 9.31764706,13.8838174 9.31764706,15.1037344 C9.31764706,16.3236515 7.51764706,17.2879668 7.51764706,18.6821577 C7.51764706,20.0763485 9.08235294,21.2497925 9.08235294,22.4348548 C9.08235294,23.4921162 7.74117647,24.8979253 7.69411765,26.1759336 C7.42352941,26.0365145 7.15294118,25.8970954 6.88235294,25.7344398 C6.98823529,24.5609959 8.25882353,23.6315353 8.25882353,22.4580913 C8.25882353,22.0282158 8.05882353,21.6680498 7.88235294,21.3775934 C8.4,23.0041494 6.47058824,23.9684647 6.29411765,25.3626556 C5.94117647,25.1302905 5.6,24.8863071 5.27058824,24.6190871 C5.42352941,24.3634855 5.65882353,24.0381743 5.91764706,23.8639004 C5.8,23.7128631 5.67058824,23.573444 5.56470588,23.4107884 C5.24705882,23.5966805 4.97647059,23.9452282 4.8,24.2240664 C4.51764706,23.980083 4.23529412,23.7128631 3.97647059,23.4456432 C4.22352941,23.1435685 4.54117647,22.6788382 5,22.5626556 C4.89411765,22.3883817 4.78823529,22.2024896 4.69411765,22.0165975 C4.15294118,22.1560166 3.78823529,22.6556017 3.51764706,22.9576763 C3.27058824,22.6788382 3.03529412,22.4 2.81176471,22.0979253 C3.22352941,21.8307054 3.55294118,21.180083 4.29411765,21.1452282 C4.35294118,21.2962656 4.42352941,21.4473029 4.48235294,21.5983402 C4.56470588,21.7726141 4.68235294,21.8307054 4.90588235,21.8307054 C5.58823529,21.8307054 6.64705882,21.3892116 7.45882353,20.5991701 C6.92941176,19.646473 6.77647059,19.1701245 6.77647059,18.6705394 C6.77647059,17.4157676 8.58823529,16.3585062 8.58823529,15.1385892 C8.58823529,13.9186722 7.96470588,13.2215768 7.96470588,11.8970954 C7.96470588,10.7004149 8.50588235,9.6780083 9.22352941,8.806639 C9.04705882,8.91120332 8.89411765,9.03900415 8.74117647,9.19004149 C7.96470588,9.95684647 7.45882353,11.0954357 7.45882353,12.1294606 C7.45882353,13.5352697 7.98823529,14.1045643 7.98823529,15.1502075 C7.98823529,16.1145228 5.92941176,17.4390041 6.16470588,18.7518672 C5.44705882,19.4024896 4.58823529,19.6813278 3.83529412,19.6813278 C3.90588235,19.9485477 3.97647059,20.2157676 4.05882353,20.4829876 C3.21176471,20.5294606 2.82352941,21.2381743 2.38823529,21.4705394 C2.16470588,21.1452282 1.96470588,20.8082988 1.77647059,20.459751 C2.52941176,20.3784232 2.75294118,19.4257261 3.8,19.5070539 C3.74117647,19.2514523 3.69411765,18.9958506 3.65882353,18.740249 C2.44705882,18.6589212 2.17647059,19.6697095 1.38823529,19.7045643 C1.22352941,19.3443983 1.07058824,18.9842324 0.929411765,18.6124481 C2.03529412,18.6589212 2.41176471,17.6016598 3.56470588,17.613278 L3.56470588,17.2879668 C3.56470588,17.0904564 3.57647059,16.9045643 3.57647059,16.7070539 C2.21176471,16.6721992 1.8,17.8340249 0.623529412,17.7178423 C0.517647059,17.3576763 0.423529412,16.9858921 0.341176471,16.6024896 C1.82352941,16.7883817 2.36470588,15.5452282 3.70588235,15.5568465 C3.76470588,15.2082988 3.84705882,14.859751 3.94117647,14.5228216 C2.31764706,14.453112 1.75294118,15.8473029 0.176470588,15.5917012 C0.129411765,15.26639 0.105882353,14.9410788 0.0823529412,14.6157676 C1.91764706,14.813278 2.61176471,13.3261411 4.28235294,13.5120332 C4.43529412,13.1170124 4.62352941,12.73361 4.83529412,12.3618257 C2.74117647,12.0016598 2.02352941,13.7327801 0.0705882353,13.4655602 C0.235294118,6.02987552 6.41176471,0.0697095436 13.9882353,0.0697095436 C18.8251982,0.0697095436 23.0837582,2.49142036 25.5908083,6.1763378 C27.0168226,8.27232491 27.8761615,10.777004 27.9529412,13.4771784 C26,13.7443983 25.2823529,12.013278 23.1882353,12.373444 C23.4,12.7452282 23.5764706,13.1286307 23.7411765,13.5236515 C25.4117647,13.3261411 26.0941176,14.8248963 27.9411765,14.6157676 M7.98823529,8.82987552 C6.96470588,8.41161826 5.71764706,8.51618257 4.64705882,9.19004149 C4.48235294,8.21410788 3.94117647,7.34273859 3.17647059,6.81991701 C3.07058824,6.75020747 2.96470588,6.81991701 2.96470588,6.93609959 C3.12941176,9.00414938 1.90588235,10.793361 0.4,12.373444 C1.95294118,12.8381743 3.27058824,10.8630705 5.27058824,11.5485477 C6.01176471,10.4912863 6.92941176,9.56182573 7.98823529,8.82987552 M13.9882353,7.58672199 C12.6941176,7.58672199 11.6,8.30705394 11.3176471,9.24813278 C11.2941176,9.31784232 11.3294118,9.36431535 11.4117647,9.32946058 C11.6470588,9.22489627 11.9058824,9.17842324 12.2,9.17842324 C12.7294118,9.17842324 13.2,9.37593361 13.4705882,9.70124481 C13.5882353,10.0962656 13.6,10.6771784 13.4588235,11.0024896 C13.2470588,10.9560166 13.1647059,10.793361 12.9529412,10.793361 C12.7411765,10.793361 12.5764706,10.9443983 12.2117647,10.9443983 C11.8470588,10.9443983 11.8117647,10.7701245 11.5764706,10.7701245 C11.2941176,10.7701245 11.2470588,11.0489627 11.2470588,11.3742739 C11.2470588,12.8033195 12.5764706,14.766805 13.9882353,14.766805 C15.4,14.766805 16.7294118,12.8033195 16.7294118,11.3742739 C16.7294118,11.0489627 16.6588235,10.7817427 16.3764706,10.746888 C16.2352941,10.8514523 16.0941176,10.9443983 15.7647059,10.9443983 C15.4,10.9443983 15.3058824,10.793361 15.0941176,10.793361 C14.8352941,10.793361 14.8588235,11.3278008 14.5529412,11.3626556 C14.3529412,10.8863071 14.3411765,10.2589212 14.5058824,9.71286307 C14.7764706,9.37593361 15.2470588,9.19004149 15.7764706,9.19004149 C16.0588235,9.19004149 16.3294118,9.23651452 16.5647059,9.34107884 C16.6470588,9.37593361 16.6823529,9.32946058 16.6588235,9.25975104 C16.3764706,8.30705394 15.2823529,7.58672199 13.9882353,7.58672199 M16.0588235,9.63153527 C15.7411765,9.63153527 15.3882353,9.72448133 15.1529412,9.98008299 C15.1294118,10.0497925 15.1294118,10.1543568 15.1647059,10.2124481 C15.7294118,10.026556 16.2235294,10.0149378 16.4705882,10.2821577 C16.6,10.1659751 16.6352941,10.0614108 16.6352941,9.94522822 C16.6352941,9.7593361 16.4352941,9.63153527 16.0588235,9.63153527 M11.5176471,10.2821577 C11.7882353,10.0149378 12.3647059,10.026556 12.9529412,10.2356846 C12.9764706,9.94522822 12.4470588,9.61991701 11.9176471,9.61991701 C11.5294118,9.61991701 11.3411765,9.74771784 11.3411765,9.93360996 C11.3529412,10.0614108 11.3882353,10.1659751 11.5176471,10.2821577 M20.4588235,5.44896266 C19.4352941,5.5186722 18.5411765,5.86721992 17.8235294,6.44813278 C18.1294118,5.58838174 18.5176471,4.84481328 19.0117647,4.12448133 C17.7058824,4.26390041 16.6235294,4.72863071 15.8235294,5.54190871 L15.2,3.92697095 L16.5764706,2.7186722 L14.7294118,2.59087137 L13.9882353,0.894605809 L13.2470588,2.59087137 L11.4,2.7186722 L12.7764706,3.92697095 L12.1529412,5.54190871 C11.3529412,4.74024896 10.2705882,4.26390041 8.96470588,4.12448133 C9.45882353,4.84481328 9.84705882,5.6 10.1529412,6.44813278 C9.43529412,5.86721992 8.54117647,5.5186722 7.51764706,5.44896266 C8.12941176,6.22738589 8.67058824,7.06390041 9.08235294,7.95850622 C9.12941176,8.06307054 9.22352941,8.09792531 9.32941176,8.03983402 C10.7294118,7.35435685 12.3058824,6.9593361 13.9882353,6.9593361 C15.6588235,6.9593361 17.2352941,7.34273859 18.6470588,8.03983402 C18.7529412,8.09792531 18.8470588,8.06307054 18.8941176,7.95850622 C19.2941176,7.06390041 19.8470588,6.22738589 20.4588235,5.44896266 M22.6941176,11.5485477 C24.7058824,10.8630705 26.0235294,12.826556 27.5764706,12.373444 C26.0705882,10.793361 24.8470588,9.00414938 25.0117647,6.93609959 C25.0235294,6.81991701 24.9058824,6.75020747 24.8117647,6.81991701 C24.0470588,7.34273859 23.5058824,8.21410788 23.3411765,9.19004149 C22.2823529,8.51618257 21.0352941,8.42323651 20,8.82987552 C21.0588235,9.56182573 21.9647059,10.4912863 22.6941176,11.5485477" id="Shape" fill="#00AF66"></path>
                        </g>
                    </g>
                </g>
            </g>
        </g>
    </g>
</svg>